<svg width="293" height="264" viewBox="0 0 293 264" fill="none" xmlns="http://www.w3.org/2000/svg">
<path d="M42.075 213.675V0H155.728C180.435 0 202.473 3.45915 221.843 10.3782C241.115 17.2465 250.8 27.879 250.8 42.1755V171.499C250.8 184.828 241.807 195.157 223.721 202.584C205.635 209.961 183.202 213.675 156.321 213.675H42.075ZM159.483 174.857V38.6647C159.483 31.1863 150.786 27.4722 133.392 27.4722V186.202C150.786 186.202 159.483 182.438 159.483 174.857Z" fill="#50B9CE"/>
<path fill-rule="evenodd" clip-rule="evenodd" d="M82.5 23.925H208.725V186.45H82.5V23.925Z" fill="#50B9CE"/>
<path d="M89.1 27.2251H119.625V186.45H89.1V27.2251Z" fill="white"/>
<path d="M119.625 27.2251H208.725V57.1627H179.324V186.45H148.128V57.1627H119.625V27.2251Z" fill="white"/>
<path d="M0 229.35H12.785C15.6701 229.35 17.8685 229.568 19.3794 230.011C21.408 230.609 23.1539 231.673 24.6005 233.206C26.0554 234.73 27.1543 236.601 27.9142 238.819C28.666 241.029 29.0452 243.763 29.0452 247.006C29.0452 249.861 28.6899 252.313 27.9786 254.378C27.1139 256.902 25.8774 258.943 24.2692 260.5C23.0567 261.685 21.4163 262.604 19.3555 263.266C17.8116 263.757 15.7508 264 13.165 264H0V229.35ZM7.03054 235.206V258.144H12.2434C14.1912 258.144 15.5975 258.031 16.4622 257.814C17.6014 257.531 18.5394 257.047 19.2829 256.37C20.0347 255.692 20.6406 254.579 21.1096 253.031C21.5861 251.482 21.8202 249.361 21.8202 246.683C21.8202 244.006 21.5861 241.956 21.1096 240.521C20.6406 239.085 19.9778 237.972 19.1289 237.165C18.2806 236.367 17.2057 235.819 15.8967 235.536C14.9265 235.318 13.0109 235.206 10.1662 235.206H7.03054ZM35.0181 264V229.35H49.783C53.4932 229.35 56.192 229.664 57.8735 230.285C59.5625 230.907 60.9037 232.012 61.9143 233.601C62.9241 235.198 63.4335 237.012 63.4335 239.061C63.4335 241.666 62.6735 243.811 61.1461 245.505C59.6186 247.199 57.3394 248.264 54.301 248.707C55.812 249.586 57.0567 250.555 58.0351 251.611C59.021 252.667 60.3464 254.547 62.0108 257.241L66.246 264H57.8653L52.8379 256.434C51.036 253.748 49.7995 252.054 49.1285 251.353C48.4658 250.659 47.7627 250.175 47.0192 249.917C46.2674 249.659 45.0878 249.531 43.4713 249.531H42.0494V264H35.0181ZM42.0494 244.013H47.2376C50.5999 244.013 52.6928 243.868 53.5336 243.586C54.3654 243.304 55.0281 242.812 55.4971 242.118C55.9736 241.424 56.2085 240.553 56.2085 239.513C56.2085 238.343 55.8928 237.408 55.2704 236.682C54.6488 235.964 53.7677 235.513 52.636 235.327C52.0622 235.246 50.3568 235.206 47.5203 235.206H42.0494V244.013ZM70.0362 264V229.35H95.7363V235.206H77.0675V242.9H94.4273V248.756H77.0675V258.144H96.4155V264H70.0362ZM133.656 264H126.083L123.085 256.112H109.16L106.275 264H98.8398L112.32 229.35H119.747L133.656 264ZM120.806 250.256L115.981 237.432L111.293 250.256H120.806ZM137.301 264V229.35H147.831L154.054 252.982L160.204 229.35H170.759V264H164.261L164.238 236.722L157.392 264H150.636L143.823 236.722L143.798 264H137.301ZM177.548 264V229.35H184.579V264H177.548ZM199.069 264V235.206H188.789V229.35H216.333V235.206H206.101V264H199.069ZM215.411 264V257.37H222.054V264H215.411ZM228.98 229.35H242.865C245.621 229.35 247.665 229.463 249.015 229.689C250.372 229.923 251.577 230.399 252.644 231.116C253.711 231.843 254.599 232.802 255.311 234.004C256.022 235.206 256.377 236.561 256.377 238.053C256.377 239.666 255.941 241.158 255.068 242.505C254.195 243.86 253.008 244.869 251.512 245.546C253.622 246.167 255.238 247.216 256.377 248.7C257.509 250.184 258.075 251.925 258.075 253.934C258.075 255.515 257.711 257.047 256.976 258.539C256.24 260.032 255.238 261.225 253.961 262.12C252.692 263.008 251.124 263.556 249.258 263.766C248.094 263.887 245.273 263.967 240.804 264H228.98V229.35ZM236.011 235.109V243.094H240.602C243.325 243.094 245.023 243.054 245.685 242.973C246.881 242.836 247.827 242.424 248.514 241.739C249.201 241.053 249.541 240.158 249.541 239.045C249.541 237.972 249.241 237.109 248.651 236.44C248.061 235.77 247.181 235.367 246.017 235.23C245.322 235.149 243.325 235.109 240.036 235.109H236.011ZM236.011 248.853V258.144H242.509C245.031 258.144 246.639 258.071 247.317 257.935C248.36 257.741 249.209 257.282 249.864 256.547C250.518 255.805 250.85 254.829 250.85 253.595C250.85 252.546 250.599 251.668 250.09 250.941C249.589 250.216 248.853 249.684 247.899 249.353C246.946 249.022 244.869 248.853 241.677 248.853H236.011ZM273.115 264V249.417L260.386 229.35H268.605L276.816 243.069L284.809 229.35H292.875L280.146 249.466V264H273.115Z" fill="#50B9CE"/>
</svg>
