<svg width="42" height="42" viewBox="0 0 42 42" fill="none" xmlns="http://www.w3.org/2000/svg">
<g clip-path="url(#clip0_21_46)">
<path fill-rule="evenodd" clip-rule="evenodd" d="M37.3844 25.8259C37.3844 25.8259 40.7801 29.1796 41.6201 30.7315C41.6364 30.7539 41.6492 30.7787 41.6579 30.805C42.0002 31.3783 42.0842 31.8277 41.9162 32.1595C41.6327 32.7076 40.673 32.9827 40.3475 33.0058H34.3457C33.9278 33.0058 33.0584 32.8966 32 32.1658C31.1915 31.6009 30.3872 30.6706 29.6081 29.7613C28.4447 28.411 27.4388 27.2392 26.4203 27.2392C26.2917 27.2389 26.1639 27.2602 26.0423 27.3022C25.2716 27.5458 24.293 28.6441 24.293 31.5694C24.293 32.485 23.5706 33.0058 23.0645 33.0058H20.3156C19.379 33.0058 14.5028 32.6782 10.1789 28.1191C4.88059 22.5373 0.121989 11.3401 0.0757891 11.2414C-0.220311 10.5169 0.401289 10.1221 1.07329 10.1221H7.13389C7.94659 10.1221 8.21119 10.6135 8.39599 11.0545C8.61019 11.5606 9.40399 13.585 10.706 15.8593C12.8144 19.5595 14.1101 21.0652 15.1454 21.0652C15.3399 21.0658 15.5311 21.0151 15.6998 20.9182C17.0522 20.1748 16.8002 15.3448 16.7372 14.3494C16.7372 14.1562 16.7351 12.1927 16.0421 11.2435C15.5465 10.5631 14.7023 10.2985 14.192 10.2019C14.3285 10.0045 14.6183 9.70208 14.99 9.52358C15.9161 9.06158 17.5898 8.99438 19.2509 8.99438H20.1728C21.9746 9.01958 22.4408 9.13508 23.096 9.30098C24.4148 9.61598 24.44 10.4707 24.3245 13.3813C24.2909 14.2129 24.2552 15.1495 24.2552 16.252C24.2552 16.4872 24.2447 16.7497 24.2447 17.0164C24.2048 18.5095 24.1523 20.1916 25.2065 20.8825C25.3432 20.9677 25.5011 21.0128 25.6622 21.0127C26.0276 21.0127 27.1217 21.0127 30.089 15.9202C31.391 13.6711 32.399 11.0188 32.4683 10.8193C32.5271 10.708 32.7035 10.3951 32.9177 10.2691C33.0701 10.188 33.2407 10.1475 33.4133 10.1515H40.5428C41.3198 10.1515 41.8469 10.2691 41.9498 10.5631C42.122 11.0398 41.9162 12.4951 38.6612 16.8967C38.1131 17.6296 37.6322 18.2638 37.2101 18.8182C34.2596 22.6906 34.2596 22.8859 37.3844 25.8259V25.8259Z" fill="white"/>
</g>
<defs>
<clipPath id="clip0_21_46">
<rect width="42" height="42" fill="white"/>
</clipPath>
</defs>
</svg>
