<svg width="42" height="42" viewBox="0 0 42 42" fill="none" xmlns="http://www.w3.org/2000/svg">
<path d="M38.6006 12.1539C38.3915 11.377 37.982 10.6686 37.413 10.0997C36.8441 9.53073 36.1357 9.1212 35.3588 8.91207C32.4975 8.1377 21 8.1377 21 8.1377C21 8.1377 9.50251 8.1377 6.64126 8.91207C5.86431 9.1212 5.15592 9.53073 4.58698 10.0997C4.01804 10.6686 3.60852 11.377 3.39939 12.1539C2.86513 15.072 2.60587 18.0337 2.62501 21.0002C2.60587 23.9667 2.86513 26.9284 3.39939 29.8464C3.60852 30.6234 4.01804 31.3318 4.58698 31.9007C5.15592 32.4697 5.86431 32.8792 6.64126 33.0883C9.50251 33.8627 21 33.8627 21 33.8627C21 33.8627 32.4975 33.8627 35.3588 33.0883C36.1357 32.8792 36.8441 32.4697 37.413 31.9007C37.982 31.3318 38.3915 30.6234 38.6006 29.8464C39.1349 26.9284 39.3942 23.9667 39.375 21.0002C39.3942 18.0337 39.1349 15.072 38.6006 12.1539ZM17.325 26.5127V15.4877L26.8669 21.0002L17.325 26.5127Z" fill="white"/>
</svg>
